<svg width="14" height="14" viewBox="0 0 14 14" fill="none" xmlns="http://www.w3.org/2000/svg">
<path d="M6.99999 3.50001C7.32112 3.50001 7.63087 3.54201 7.93012 3.62689C8.51432 3.78704 9.04606 4.09817 9.47187 4.52901C9.90235 4.95495 10.2132 5.48667 10.3731 6.07076C10.458 6.36826 10.5 6.67889 10.5 7.00001C10.5 7.32114 10.458 7.63089 10.3731 7.93014C10.2138 8.51523 9.90288 9.04795 9.47187 9.47451C9.04421 9.90297 8.51314 10.2137 7.93012 10.3766C7.62999 10.4589 7.32112 10.5 6.99999 10.5C6.67887 10.5 6.36912 10.4589 6.06987 10.3775C5.48641 10.2133 4.95473 9.90245 4.52549 9.47451C4.09739 9.04505 3.7865 8.51305 3.62249 7.92926C3.5401 7.62642 3.49889 7.31386 3.49999 7.00001C3.49999 6.67889 3.54112 6.36914 3.62249 6.06989C3.70473 5.77773 3.82443 5.49744 3.97862 5.23601C4.28416 4.71786 4.71541 4.28511 5.23249 3.97776C5.49493 3.8244 5.77649 3.70642 6.06987 3.62689C6.37256 3.54184 6.68558 3.49914 6.99999 3.50001Z" fill="#AAAAAA"/>
</svg>
